<svg width="25" height="25" viewBox="0 0 25 25" fill="none" xmlns="http://www.w3.org/2000/svg">
<g clip-path="url(#clip0_341_52216)">
<path d="M3.8678 11.206C3.68546 11.206 3.51059 11.1336 3.38166 11.0047C3.25273 10.8757 3.1803 10.7009 3.1803 10.5185V5.0199C3.1803 4.83756 3.25273 4.66269 3.38166 4.53376C3.51059 4.40483 3.68546 4.3324 3.8678 4.3324H9.3678C9.55013 4.3324 9.725 4.40483 9.85393 4.53376C9.98286 4.66269 10.0553 4.83756 10.0553 5.0199V10.5185C10.0553 10.7009 9.98286 10.8757 9.85393 11.0047C9.725 11.1336 9.55013 11.206 9.3678 11.206H3.8678ZM13.4928 11.206C13.3105 11.206 13.1356 11.1336 13.0067 11.0047C12.8777 10.8757 12.8053 10.7009 12.8053 10.5185V5.0199C12.8053 4.83756 12.8777 4.66269 13.0067 4.53376C13.1356 4.40483 13.3105 4.3324 13.4928 4.3324H18.9914C19.1738 4.3324 19.3486 4.40483 19.4776 4.53376C19.6065 4.66269 19.6789 4.83756 19.6789 5.0199V10.5185C19.6789 10.7009 19.6065 10.8757 19.4776 11.0047C19.3486 11.1336 19.1738 11.206 18.9914 11.206H13.4928ZM3.8678 20.831C3.68546 20.831 3.51059 20.7586 3.38166 20.6297C3.25273 20.5007 3.1803 20.3259 3.1803 20.1435V14.6435C3.1803 14.4612 3.25273 14.2863 3.38166 14.1574C3.51059 14.0285 3.68546 13.956 3.8678 13.956H9.3678C9.55013 13.956 9.725 14.0285 9.85393 14.1574C9.98286 14.2863 10.0553 14.4612 10.0553 14.6435V20.1435C10.0553 20.3259 9.98286 20.5007 9.85393 20.6297C9.725 20.7586 9.55013 20.831 9.3678 20.831H3.8678ZM13.4928 20.831C13.3105 20.831 13.1356 20.7586 13.0067 20.6297C12.8777 20.5007 12.8053 20.3259 12.8053 20.1435V14.6435C12.8053 14.4612 12.8777 14.2863 13.0067 14.1574C13.1356 14.0285 13.3105 13.956 13.4928 13.956H18.9914C19.1738 13.956 19.3486 14.0285 19.4776 14.1574C19.6065 14.2863 19.6789 14.4612 19.6789 14.6435V20.1435C19.6789 20.3259 19.6065 20.5007 19.4776 20.6297C19.3486 20.7586 19.1738 20.831 18.9914 20.831H13.4928Z" fill="#DFDFDF"/>
</g>
<defs>
<clipPath id="clip0_341_52216">
<rect width="24" height="24" fill="white" transform="translate(0.430298 0.581055)"/>
</clipPath>
</defs>
</svg>
