<svg width="390" height="241" viewBox="0 0 390 241" fill="none" xmlns="http://www.w3.org/2000/svg">
<rect width="390" height="240" transform="translate(0 0.581055)" fill="black"/>
<path d="M65.707 121.558C65.707 121.215 65.6543 120.908 65.5488 120.635C65.4521 120.354 65.2676 120.099 64.9951 119.871C64.7227 119.633 64.3403 119.4 63.8481 119.172C63.356 118.943 62.7188 118.706 61.9365 118.46C61.0664 118.179 60.2402 117.862 59.458 117.511C58.6846 117.159 57.999 116.75 57.4014 116.285C56.8125 115.81 56.3467 115.261 56.0039 114.637C55.6699 114.013 55.5029 113.288 55.5029 112.461C55.5029 111.662 55.6787 110.937 56.0303 110.286C56.3818 109.627 56.874 109.064 57.5068 108.599C58.1396 108.124 58.8867 107.759 59.748 107.504C60.6182 107.25 61.5718 107.122 62.6089 107.122C64.0239 107.122 65.2588 107.377 66.3135 107.887C67.3682 108.396 68.1855 109.095 68.7656 109.983C69.3545 110.871 69.6489 111.886 69.6489 113.028H65.7202C65.7202 112.466 65.6016 111.974 65.3643 111.552C65.1357 111.121 64.7842 110.783 64.3096 110.537C63.8438 110.291 63.2549 110.167 62.543 110.167C61.8574 110.167 61.2861 110.273 60.8291 110.484C60.3721 110.686 60.0293 110.963 59.8008 111.314C59.5723 111.657 59.458 112.044 59.458 112.475C59.458 112.8 59.5371 113.094 59.6953 113.358C59.8623 113.622 60.1084 113.868 60.4336 114.096C60.7588 114.325 61.1587 114.54 61.6333 114.742C62.1079 114.944 62.6572 115.142 63.2812 115.335C64.3271 115.652 65.2456 116.008 66.0366 116.403C66.8364 116.799 67.5044 117.243 68.0405 117.735C68.5767 118.227 68.981 118.785 69.2534 119.409C69.5259 120.033 69.6621 120.741 69.6621 121.532C69.6621 122.367 69.4995 123.114 69.1743 123.773C68.8491 124.432 68.3789 124.99 67.7637 125.447C67.1484 125.904 66.4146 126.251 65.562 126.489C64.7095 126.726 63.7559 126.845 62.7012 126.845C61.752 126.845 60.8159 126.722 59.8931 126.476C58.9702 126.221 58.1309 125.838 57.375 125.329C56.6279 124.819 56.0303 124.168 55.582 123.377C55.1338 122.586 54.9097 121.65 54.9097 120.569H58.8779C58.8779 121.167 58.9702 121.672 59.1548 122.085C59.3394 122.499 59.5986 122.833 59.9326 123.087C60.2754 123.342 60.6797 123.527 61.1455 123.641C61.6201 123.755 62.1387 123.812 62.7012 123.812C63.3867 123.812 63.9492 123.716 64.3887 123.522C64.8369 123.329 65.1665 123.061 65.3774 122.718C65.5972 122.375 65.707 121.989 65.707 121.558ZM76.3588 106.331V126.581H72.562V106.331H76.3588ZM75.8183 118.948H74.7768C74.7856 117.955 74.9174 117.041 75.1723 116.206C75.4272 115.362 75.792 114.632 76.2666 114.017C76.7412 113.393 77.3081 112.91 77.9672 112.567C78.6352 112.224 79.3735 112.053 80.1821 112.053C80.8852 112.053 81.5224 112.154 82.0937 112.356C82.6738 112.549 83.1704 112.866 83.5835 113.305C84.0053 113.736 84.3305 114.303 84.559 115.006C84.7876 115.709 84.9018 116.562 84.9018 117.563V126.581H81.0786V117.537C81.0786 116.904 80.9863 116.408 80.8017 116.047C80.6259 115.678 80.3667 115.419 80.0239 115.27C79.6899 115.111 79.2768 115.032 78.7846 115.032C78.2397 115.032 77.7739 115.133 77.3872 115.335C77.0092 115.538 76.706 115.819 76.4775 116.179C76.249 116.531 76.082 116.944 75.9765 117.418C75.8711 117.893 75.8183 118.403 75.8183 118.948ZM96.0282 123.364V117.01C96.0282 116.553 95.9535 116.162 95.8041 115.836C95.6547 115.502 95.4218 115.243 95.1054 115.059C94.7978 114.874 94.3979 114.782 93.9057 114.782C93.4838 114.782 93.1191 114.856 92.8114 115.006C92.5038 115.146 92.2665 115.353 92.0995 115.625C91.9325 115.889 91.849 116.201 91.849 116.562H88.0522C88.0522 115.955 88.1928 115.379 88.474 114.834C88.7553 114.29 89.164 113.811 89.7001 113.397C90.2363 112.976 90.8735 112.646 91.6117 112.409C92.3588 112.171 93.1938 112.053 94.1166 112.053C95.224 112.053 96.2084 112.237 97.0697 112.606C97.9311 112.976 98.6078 113.529 99.1 114.268C99.601 115.006 99.8515 115.929 99.8515 117.036V123.14C99.8515 123.922 99.8998 124.564 99.9965 125.065C100.093 125.557 100.234 125.988 100.418 126.357V126.581H96.582C96.3974 126.194 96.2568 125.711 96.1601 125.131C96.0722 124.542 96.0282 123.953 96.0282 123.364ZM96.5292 117.893L96.5556 120.042H94.433C93.9321 120.042 93.497 120.099 93.1279 120.213C92.7587 120.328 92.4555 120.49 92.2182 120.701C91.9809 120.903 91.8051 121.141 91.6908 121.413C91.5854 121.686 91.5326 121.984 91.5326 122.31C91.5326 122.635 91.6073 122.929 91.7568 123.193C91.9062 123.448 92.1215 123.65 92.4028 123.799C92.684 123.94 93.0136 124.01 93.3915 124.01C93.9628 124.01 94.4594 123.896 94.8813 123.667C95.3031 123.439 95.6283 123.158 95.8569 122.824C96.0942 122.49 96.2172 122.173 96.226 121.875L97.228 123.483C97.0873 123.843 96.894 124.217 96.6479 124.604C96.4106 124.99 96.1073 125.355 95.7382 125.698C95.3691 126.032 94.9252 126.309 94.4067 126.528C93.8881 126.739 93.2729 126.845 92.561 126.845C91.6557 126.845 90.8339 126.665 90.0956 126.304C89.3661 125.935 88.7861 125.43 88.3554 124.788C87.9335 124.138 87.7226 123.399 87.7226 122.573C87.7226 121.826 87.8632 121.163 88.1445 120.583C88.4257 120.002 88.8388 119.515 89.3837 119.119C89.9374 118.715 90.6274 118.412 91.4535 118.209C92.2797 117.999 93.2377 117.893 94.3276 117.893H96.5292ZM107.115 115.428V126.581H103.318V112.316H106.891L107.115 115.428ZM111.413 112.224L111.347 115.744C111.162 115.718 110.938 115.696 110.675 115.678C110.42 115.652 110.187 115.639 109.976 115.639C109.44 115.639 108.974 115.709 108.578 115.85C108.192 115.981 107.867 116.179 107.603 116.443C107.348 116.707 107.155 117.027 107.023 117.405C106.9 117.783 106.829 118.214 106.812 118.697L106.047 118.46C106.047 117.537 106.14 116.689 106.324 115.916C106.509 115.133 106.777 114.452 107.128 113.872C107.489 113.292 107.928 112.844 108.447 112.527C108.965 112.211 109.558 112.053 110.226 112.053C110.437 112.053 110.653 112.07 110.872 112.105C111.092 112.132 111.272 112.171 111.413 112.224ZM120.048 126.845C118.94 126.845 117.947 126.669 117.068 126.317C116.189 125.957 115.442 125.46 114.827 124.828C114.221 124.195 113.755 123.461 113.43 122.626C113.104 121.782 112.942 120.886 112.942 119.937V119.409C112.942 118.328 113.096 117.339 113.403 116.443C113.711 115.546 114.15 114.769 114.722 114.109C115.302 113.45 116.005 112.945 116.831 112.593C117.657 112.233 118.589 112.053 119.626 112.053C120.637 112.053 121.533 112.22 122.315 112.554C123.097 112.888 123.752 113.362 124.28 113.978C124.816 114.593 125.22 115.331 125.493 116.192C125.765 117.045 125.901 117.994 125.901 119.04V120.622H114.563V118.091H122.17V117.801C122.17 117.273 122.074 116.803 121.88 116.39C121.696 115.968 121.414 115.634 121.036 115.388C120.659 115.142 120.175 115.019 119.586 115.019C119.085 115.019 118.655 115.129 118.294 115.349C117.934 115.568 117.639 115.876 117.411 116.271C117.191 116.667 117.024 117.133 116.91 117.669C116.805 118.196 116.752 118.776 116.752 119.409V119.937C116.752 120.508 116.831 121.035 116.989 121.519C117.156 122.002 117.389 122.419 117.688 122.771C117.995 123.123 118.365 123.395 118.795 123.588C119.235 123.782 119.731 123.878 120.285 123.878C120.971 123.878 121.608 123.747 122.197 123.483C122.794 123.21 123.308 122.802 123.739 122.257L125.585 124.261C125.286 124.691 124.877 125.104 124.359 125.5C123.849 125.896 123.234 126.221 122.513 126.476C121.792 126.722 120.971 126.845 120.048 126.845ZM143.566 123.364V117.01C143.566 116.553 143.491 116.162 143.342 115.836C143.193 115.502 142.96 115.243 142.643 115.059C142.336 114.874 141.936 114.782 141.444 114.782C141.022 114.782 140.657 114.856 140.349 115.006C140.042 115.146 139.804 115.353 139.637 115.625C139.47 115.889 139.387 116.201 139.387 116.562H135.59C135.59 115.955 135.731 115.379 136.012 114.834C136.293 114.29 136.702 113.811 137.238 113.397C137.774 112.976 138.411 112.646 139.15 112.409C139.897 112.171 140.732 112.053 141.655 112.053C142.762 112.053 143.746 112.237 144.608 112.606C145.469 112.976 146.146 113.529 146.638 114.268C147.139 115.006 147.389 115.929 147.389 117.036V123.14C147.389 123.922 147.438 124.564 147.534 125.065C147.631 125.557 147.772 125.988 147.956 126.357V126.581H144.12C143.935 126.194 143.795 125.711 143.698 125.131C143.61 124.542 143.566 123.953 143.566 123.364ZM144.067 117.893L144.094 120.042H141.971C141.47 120.042 141.035 120.099 140.666 120.213C140.297 120.328 139.993 120.49 139.756 120.701C139.519 120.903 139.343 121.141 139.229 121.413C139.123 121.686 139.071 121.984 139.071 122.31C139.071 122.635 139.145 122.929 139.295 123.193C139.444 123.448 139.659 123.65 139.941 123.799C140.222 123.94 140.552 124.01 140.929 124.01C141.501 124.01 141.997 123.896 142.419 123.667C142.841 123.439 143.166 123.158 143.395 122.824C143.632 122.49 143.755 122.173 143.764 121.875L144.766 123.483C144.625 123.843 144.432 124.217 144.186 124.604C143.948 124.99 143.645 125.355 143.276 125.698C142.907 126.032 142.463 126.309 141.945 126.528C141.426 126.739 140.811 126.845 140.099 126.845C139.194 126.845 138.372 126.665 137.634 126.304C136.904 125.935 136.324 125.43 135.893 124.788C135.471 124.138 135.261 123.399 135.261 122.573C135.261 121.826 135.401 121.163 135.682 120.583C135.964 120.002 136.377 119.515 136.922 119.119C137.475 118.715 138.165 118.412 138.991 118.209C139.818 117.999 140.776 117.893 141.865 117.893H144.067ZM154.574 115.362V126.581H150.777V112.316H154.337L154.574 115.362ZM154.02 118.948H152.992C152.992 117.893 153.128 116.944 153.401 116.1C153.673 115.248 154.055 114.522 154.548 113.925C155.04 113.318 155.624 112.857 156.301 112.541C156.987 112.215 157.751 112.053 158.595 112.053C159.263 112.053 159.874 112.149 160.427 112.343C160.981 112.536 161.456 112.844 161.851 113.266C162.256 113.688 162.563 114.246 162.774 114.94C162.994 115.634 163.104 116.482 163.104 117.484V126.581H159.28V117.471C159.28 116.838 159.193 116.346 159.017 115.995C158.841 115.643 158.582 115.397 158.239 115.256C157.905 115.107 157.492 115.032 157 115.032C156.49 115.032 156.046 115.133 155.668 115.335C155.299 115.538 154.991 115.819 154.745 116.179C154.508 116.531 154.328 116.944 154.205 117.418C154.082 117.893 154.02 118.403 154.02 118.948ZM170.763 124.973L174.547 112.316H178.62L172.885 128.73C172.762 129.09 172.595 129.477 172.384 129.89C172.182 130.303 171.905 130.694 171.554 131.063C171.211 131.441 170.776 131.749 170.249 131.986C169.73 132.224 169.093 132.342 168.337 132.342C167.977 132.342 167.682 132.32 167.454 132.276C167.225 132.232 166.953 132.171 166.636 132.092V129.31C166.733 129.31 166.834 129.31 166.94 129.31C167.045 129.319 167.146 129.323 167.243 129.323C167.744 129.323 168.153 129.266 168.469 129.152C168.785 129.038 169.04 128.862 169.234 128.625C169.427 128.396 169.581 128.097 169.695 127.728L170.763 124.973ZM169.181 112.316L172.279 122.652L172.82 126.673L170.236 126.95L165.107 112.316H169.181ZM187.664 112.316V115.006H179.358V112.316H187.664ZM181.415 108.796H185.212V122.283C185.212 122.696 185.264 123.013 185.37 123.232C185.484 123.452 185.651 123.606 185.871 123.694C186.09 123.773 186.367 123.812 186.701 123.812C186.939 123.812 187.15 123.804 187.334 123.786C187.527 123.76 187.69 123.733 187.822 123.707L187.835 126.502C187.51 126.607 187.158 126.691 186.78 126.752C186.402 126.814 185.985 126.845 185.528 126.845C184.693 126.845 183.964 126.708 183.339 126.436C182.724 126.155 182.25 125.707 181.916 125.091C181.582 124.476 181.415 123.667 181.415 122.666V108.796ZM194.07 106.331V126.581H190.274V106.331H194.07ZM193.53 118.948H192.488C192.497 117.955 192.629 117.041 192.884 116.206C193.139 115.362 193.504 114.632 193.978 114.017C194.453 113.393 195.02 112.91 195.679 112.567C196.347 112.224 197.085 112.053 197.894 112.053C198.597 112.053 199.234 112.154 199.805 112.356C200.385 112.549 200.882 112.866 201.295 113.305C201.717 113.736 202.042 114.303 202.271 115.006C202.499 115.709 202.613 116.562 202.613 117.563V126.581H198.79V117.537C198.79 116.904 198.698 116.408 198.513 116.047C198.337 115.678 198.078 115.419 197.735 115.27C197.401 115.111 196.988 115.032 196.496 115.032C195.951 115.032 195.485 115.133 195.099 115.335C194.721 115.538 194.418 115.819 194.189 116.179C193.961 116.531 193.794 116.944 193.688 117.418C193.583 117.893 193.53 118.403 193.53 118.948ZM210.048 112.316V126.581H206.238V112.316H210.048ZM206.001 108.599C206.001 108.045 206.194 107.588 206.581 107.228C206.968 106.867 207.486 106.687 208.137 106.687C208.778 106.687 209.293 106.867 209.679 107.228C210.075 107.588 210.273 108.045 210.273 108.599C210.273 109.152 210.075 109.609 209.679 109.97C209.293 110.33 208.778 110.51 208.137 110.51C207.486 110.51 206.968 110.33 206.581 109.97C206.194 109.609 206.001 109.152 206.001 108.599ZM217.444 115.362V126.581H213.647V112.316H217.207L217.444 115.362ZM216.89 118.948H215.862C215.862 117.893 215.998 116.944 216.271 116.1C216.543 115.248 216.925 114.522 217.417 113.925C217.91 113.318 218.494 112.857 219.171 112.541C219.856 112.215 220.621 112.053 221.465 112.053C222.133 112.053 222.744 112.149 223.297 112.343C223.851 112.536 224.326 112.844 224.721 113.266C225.126 113.688 225.433 114.246 225.644 114.94C225.864 115.634 225.974 116.482 225.974 117.484V126.581H222.15V117.471C222.15 116.838 222.063 116.346 221.887 115.995C221.711 115.643 221.452 115.397 221.109 115.256C220.775 115.107 220.362 115.032 219.87 115.032C219.36 115.032 218.916 115.133 218.538 115.335C218.169 115.538 217.861 115.819 217.615 116.179C217.378 116.531 217.198 116.944 217.075 117.418C216.952 117.893 216.89 118.403 216.89 118.948ZM238.432 112.316H241.873V126.106C241.873 127.407 241.583 128.51 241.002 129.416C240.431 130.33 239.631 131.02 238.603 131.485C237.575 131.96 236.379 132.197 235.017 132.197C234.419 132.197 233.787 132.118 233.119 131.96C232.459 131.802 231.827 131.556 231.22 131.222C230.623 130.888 230.122 130.466 229.717 129.956L231.392 127.715C231.831 128.225 232.341 128.62 232.921 128.901C233.501 129.191 234.143 129.336 234.846 129.336C235.531 129.336 236.111 129.209 236.586 128.954C237.061 128.708 237.425 128.343 237.68 127.86C237.935 127.385 238.062 126.81 238.062 126.133V115.612L238.432 112.316ZM228.834 119.62V119.343C228.834 118.253 228.966 117.265 229.229 116.377C229.502 115.48 229.884 114.711 230.376 114.07C230.877 113.428 231.484 112.932 232.196 112.58C232.908 112.229 233.712 112.053 234.608 112.053C235.558 112.053 236.353 112.229 236.995 112.58C237.636 112.932 238.164 113.433 238.577 114.083C238.99 114.725 239.311 115.485 239.539 116.364C239.776 117.234 239.961 118.188 240.093 119.225V119.831C239.961 120.824 239.763 121.747 239.499 122.6C239.236 123.452 238.889 124.199 238.458 124.841C238.027 125.474 237.491 125.966 236.85 126.317C236.217 126.669 235.461 126.845 234.582 126.845C233.703 126.845 232.908 126.665 232.196 126.304C231.493 125.944 230.891 125.438 230.39 124.788C229.889 124.138 229.502 123.373 229.229 122.494C228.966 121.615 228.834 120.657 228.834 119.62ZM232.631 119.343V119.62C232.631 120.209 232.688 120.758 232.802 121.268C232.916 121.778 233.092 122.23 233.33 122.626C233.576 123.013 233.879 123.316 234.239 123.536C234.608 123.747 235.043 123.852 235.544 123.852C236.239 123.852 236.806 123.707 237.245 123.417C237.685 123.118 238.014 122.709 238.234 122.191C238.454 121.672 238.581 121.075 238.616 120.398V118.671C238.599 118.117 238.524 117.621 238.392 117.181C238.26 116.733 238.076 116.351 237.838 116.034C237.601 115.718 237.293 115.472 236.916 115.296C236.538 115.12 236.089 115.032 235.571 115.032C235.07 115.032 234.635 115.146 234.266 115.375C233.905 115.595 233.602 115.898 233.356 116.285C233.119 116.671 232.938 117.128 232.815 117.656C232.692 118.174 232.631 118.737 232.631 119.343ZM256.334 106.331V126.581H252.537V106.331H256.334ZM255.793 118.948H254.752C254.761 117.955 254.892 117.041 255.147 116.206C255.402 115.362 255.767 114.632 256.242 114.017C256.716 113.393 257.283 112.91 257.942 112.567C258.61 112.224 259.349 112.053 260.157 112.053C260.86 112.053 261.497 112.154 262.069 112.356C262.649 112.549 263.145 112.866 263.559 113.305C263.98 113.736 264.306 114.303 264.534 115.006C264.763 115.709 264.877 116.562 264.877 117.563V126.581H261.054V117.537C261.054 116.904 260.961 116.408 260.777 116.047C260.601 115.678 260.342 115.419 259.999 115.27C259.665 115.111 259.252 115.032 258.76 115.032C258.215 115.032 257.749 115.133 257.362 115.335C256.984 115.538 256.681 115.819 256.453 116.179C256.224 116.531 256.057 116.944 255.952 117.418C255.846 117.893 255.793 118.403 255.793 118.948ZM274.869 126.845C273.762 126.845 272.769 126.669 271.89 126.317C271.011 125.957 270.264 125.46 269.649 124.828C269.042 124.195 268.577 123.461 268.251 122.626C267.926 121.782 267.764 120.886 267.764 119.937V119.409C267.764 118.328 267.917 117.339 268.225 116.443C268.533 115.546 268.972 114.769 269.543 114.109C270.123 113.45 270.827 112.945 271.653 112.593C272.479 112.233 273.411 112.053 274.448 112.053C275.458 112.053 276.355 112.22 277.137 112.554C277.919 112.888 278.574 113.362 279.101 113.978C279.638 114.593 280.042 115.331 280.314 116.192C280.587 117.045 280.723 117.994 280.723 119.04V120.622H269.385V118.091H276.992V117.801C276.992 117.273 276.895 116.803 276.702 116.39C276.517 115.968 276.236 115.634 275.858 115.388C275.48 115.142 274.997 115.019 274.408 115.019C273.907 115.019 273.476 115.129 273.116 115.349C272.756 115.568 272.461 115.876 272.233 116.271C272.013 116.667 271.846 117.133 271.732 117.669C271.626 118.196 271.574 118.776 271.574 119.409V119.937C271.574 120.508 271.653 121.035 271.811 121.519C271.978 122.002 272.211 122.419 272.51 122.771C272.817 123.123 273.186 123.395 273.617 123.588C274.057 123.782 274.553 123.878 275.107 123.878C275.792 123.878 276.43 123.747 277.018 123.483C277.616 123.21 278.13 122.802 278.561 122.257L280.407 124.261C280.108 124.691 279.699 125.104 279.181 125.5C278.671 125.896 278.056 126.221 277.335 126.476C276.614 126.722 275.792 126.845 274.869 126.845ZM287.222 115.428V126.581H283.425V112.316H286.998L287.222 115.428ZM291.52 112.224L291.454 115.744C291.269 115.718 291.045 115.696 290.782 115.678C290.527 115.652 290.294 115.639 290.083 115.639C289.547 115.639 289.081 115.709 288.685 115.85C288.299 115.981 287.973 116.179 287.71 116.443C287.455 116.707 287.262 117.027 287.13 117.405C287.007 117.783 286.936 118.214 286.919 118.697L286.154 118.46C286.154 117.537 286.246 116.689 286.431 115.916C286.616 115.133 286.884 114.452 287.235 113.872C287.596 113.292 288.035 112.844 288.554 112.527C289.072 112.211 289.665 112.053 290.333 112.053C290.544 112.053 290.76 112.07 290.979 112.105C291.199 112.132 291.379 112.171 291.52 112.224ZM300.155 126.845C299.047 126.845 298.054 126.669 297.175 126.317C296.296 125.957 295.549 125.46 294.934 124.828C294.327 124.195 293.862 123.461 293.536 122.626C293.211 121.782 293.049 120.886 293.049 119.937V119.409C293.049 118.328 293.202 117.339 293.51 116.443C293.818 115.546 294.257 114.769 294.828 114.109C295.408 113.45 296.112 112.945 296.938 112.593C297.764 112.233 298.696 112.053 299.733 112.053C300.743 112.053 301.64 112.22 302.422 112.554C303.204 112.888 303.859 113.362 304.387 113.978C304.923 114.593 305.327 115.331 305.599 116.192C305.872 117.045 306.008 117.994 306.008 119.04V120.622H294.67V118.091H302.277V117.801C302.277 117.273 302.18 116.803 301.987 116.39C301.803 115.968 301.521 115.634 301.143 115.388C300.765 115.142 300.282 115.019 299.693 115.019C299.192 115.019 298.762 115.129 298.401 115.349C298.041 115.568 297.746 115.876 297.518 116.271C297.298 116.667 297.131 117.133 297.017 117.669C296.911 118.196 296.859 118.776 296.859 119.409V119.937C296.859 120.508 296.938 121.035 297.096 121.519C297.263 122.002 297.496 122.419 297.795 122.771C298.102 123.123 298.471 123.395 298.902 123.588C299.342 123.782 299.838 123.878 300.392 123.878C301.077 123.878 301.715 123.747 302.303 123.483C302.901 123.21 303.415 122.802 303.846 122.257L305.692 124.261C305.393 124.691 304.984 125.104 304.466 125.5C303.956 125.896 303.341 126.221 302.62 126.476C301.899 126.722 301.077 126.845 300.155 126.845Z" fill="white"/>
<path d="M28.5942 172.496V175.581H18.377V172.496H28.5942ZM19.6689 156.386V175.581H15.7139V156.386H19.6689ZM27.2627 164.204V167.209H18.377V164.204H27.2627ZM28.5811 156.386V159.484H18.377V156.386H28.5811ZM34.2627 161.316L36.6225 165.654L39.0483 161.316H43.0957L39.0615 168.291L43.2802 175.581H39.2197L36.6489 170.993L34.0781 175.581H30.0175L34.2363 168.291L30.2021 161.316H34.2627ZM49.2782 164.059V181.065H45.4814V161.316H49.0014L49.2782 164.059ZM58.309 168.291V168.567C58.309 169.604 58.186 170.567 57.9399 171.455C57.7026 172.342 57.351 173.116 56.8852 173.775C56.4194 174.425 55.8393 174.935 55.1449 175.304C54.4594 175.665 53.6684 175.845 52.7719 175.845C51.9018 175.845 51.1459 175.669 50.5043 175.317C49.8627 174.966 49.3222 174.474 48.8827 173.841C48.4521 173.199 48.1049 172.457 47.8412 171.613C47.5776 170.769 47.3754 169.864 47.2348 168.897V168.172C47.3754 167.135 47.5776 166.186 47.8412 165.324C48.1049 164.454 48.4521 163.703 48.8827 163.07C49.3222 162.428 49.8583 161.932 50.4911 161.58C51.1327 161.229 51.8842 161.053 52.7455 161.053C53.6508 161.053 54.4462 161.224 55.1318 161.567C55.8261 161.91 56.4062 162.402 56.872 163.043C57.3466 163.685 57.7026 164.45 57.9399 165.337C58.186 166.225 58.309 167.209 58.309 168.291ZM54.4989 168.567V168.291C54.4989 167.684 54.4462 167.126 54.3407 166.616C54.2441 166.098 54.0859 165.645 53.8661 165.258C53.6552 164.872 53.3739 164.573 53.0224 164.362C52.6796 164.142 52.2621 164.032 51.7699 164.032C51.2514 164.032 50.8075 164.116 50.4384 164.283C50.078 164.45 49.7836 164.691 49.5551 165.008C49.3266 165.324 49.1552 165.702 49.0409 166.142C48.9267 166.581 48.8564 167.078 48.83 167.631V169.464C48.8739 170.114 48.997 170.699 49.1991 171.217C49.4013 171.727 49.7133 172.131 50.1352 172.43C50.5571 172.729 51.1108 172.878 51.7963 172.878C52.2973 172.878 52.7192 172.769 53.0619 172.549C53.4047 172.32 53.6816 172.008 53.8925 171.613C54.1122 171.217 54.266 170.76 54.3539 170.242C54.4506 169.723 54.4989 169.165 54.4989 168.567ZM67.7743 175.845C66.6669 175.845 65.6737 175.669 64.7948 175.317C63.9159 174.957 63.1688 174.46 62.5536 173.828C61.9471 173.195 61.4813 172.461 61.1561 171.626C60.8309 170.782 60.6683 169.886 60.6683 168.937V168.409C60.6683 167.328 60.8221 166.339 61.1298 165.443C61.4374 164.546 61.8768 163.769 62.4481 163.109C63.0282 162.45 63.7313 161.945 64.5575 161.593C65.3837 161.233 66.3153 161.053 67.3524 161.053C68.3632 161.053 69.2596 161.22 70.0419 161.554C70.8241 161.888 71.4789 162.362 72.0062 162.978C72.5424 163.593 72.9467 164.331 73.2191 165.192C73.4916 166.045 73.6278 166.994 73.6278 168.04V169.622H62.2899V167.091H69.8969V166.801C69.8969 166.273 69.8002 165.803 69.6068 165.39C69.4222 164.968 69.141 164.634 68.7631 164.388C68.3851 164.142 67.9017 164.019 67.3129 164.019C66.8119 164.019 66.3812 164.129 66.0209 164.349C65.6605 164.568 65.3661 164.876 65.1376 165.271C64.9179 165.667 64.7509 166.133 64.6366 166.669C64.5311 167.196 64.4784 167.776 64.4784 168.409V168.937C64.4784 169.508 64.5575 170.035 64.7157 170.519C64.8827 171.002 65.1156 171.419 65.4144 171.771C65.722 172.123 66.0912 172.395 66.5219 172.588C66.9613 172.782 67.4579 172.878 68.0116 172.878C68.6971 172.878 69.3344 172.747 69.9232 172.483C70.5209 172.21 71.035 171.802 71.4657 171.257L73.3114 173.261C73.0126 173.691 72.6039 174.104 72.0853 174.5C71.5756 174.896 70.9603 175.221 70.2396 175.476C69.5189 175.722 68.6971 175.845 67.7743 175.845ZM80.1268 164.428V175.581H76.3299V161.316H79.9027L80.1268 164.428ZM84.4246 161.224L84.3587 164.744C84.1742 164.718 83.95 164.696 83.6864 164.678C83.4315 164.652 83.1986 164.639 82.9876 164.639C82.4515 164.639 81.9857 164.709 81.5902 164.85C81.2035 164.981 80.8783 165.179 80.6146 165.443C80.3597 165.707 80.1663 166.027 80.0345 166.405C79.9115 166.783 79.8412 167.214 79.8236 167.697L79.0589 167.46C79.0589 166.537 79.1512 165.689 79.3358 164.916C79.5204 164.133 79.7884 163.452 80.14 162.872C80.5003 162.292 80.9398 161.844 81.4583 161.527C81.9769 161.211 82.5702 161.053 83.2381 161.053C83.4491 161.053 83.6644 161.07 83.8841 161.105C84.1038 161.132 84.284 161.171 84.4246 161.224ZM90.7654 161.316V175.581H86.9554V161.316H90.7654ZM86.7181 157.599C86.7181 157.045 86.9114 156.588 87.2981 156.228C87.6849 155.867 88.2034 155.687 88.8538 155.687C89.4954 155.687 90.0096 155.867 90.3963 156.228C90.7918 156.588 90.9895 157.045 90.9895 157.599C90.9895 158.152 90.7918 158.609 90.3963 158.97C90.0096 159.33 89.4954 159.51 88.8538 159.51C88.2034 159.51 87.6849 159.33 87.2981 158.97C86.9114 158.609 86.7181 158.152 86.7181 157.599ZM101.009 175.845C99.9011 175.845 98.908 175.669 98.0291 175.317C97.1502 174.957 96.4031 174.46 95.7878 173.828C95.1814 173.195 94.7156 172.461 94.3904 171.626C94.0652 170.782 93.9026 169.886 93.9026 168.937V168.409C93.9026 167.328 94.0564 166.339 94.364 165.443C94.6716 164.546 95.1111 163.769 95.6824 163.109C96.2625 162.45 96.9656 161.945 97.7918 161.593C98.6179 161.233 99.5496 161.053 100.587 161.053C101.597 161.053 102.494 161.22 103.276 161.554C104.058 161.888 104.713 162.362 105.24 162.978C105.777 163.593 106.181 164.331 106.453 165.192C106.726 166.045 106.862 166.994 106.862 168.04V169.622H95.5242V167.091H103.131V166.801C103.131 166.273 103.034 165.803 102.841 165.39C102.657 164.968 102.375 164.634 101.997 164.388C101.619 164.142 101.136 164.019 100.547 164.019C100.046 164.019 99.6155 164.129 99.2551 164.349C98.8948 164.568 98.6003 164.876 98.3718 165.271C98.1521 165.667 97.9851 166.133 97.8709 166.669C97.7654 167.196 97.7127 167.776 97.7127 168.409V168.937C97.7127 169.508 97.7918 170.035 97.95 170.519C98.117 171.002 98.3499 171.419 98.6487 171.771C98.9563 172.123 99.3254 172.395 99.7561 172.588C100.196 172.782 100.692 172.878 101.246 172.878C101.931 172.878 102.569 172.747 103.157 172.483C103.755 172.21 104.269 171.802 104.7 171.257L106.546 173.261C106.247 173.691 105.838 174.104 105.32 174.5C104.81 174.896 104.195 175.221 103.474 175.476C102.753 175.722 101.931 175.845 101.009 175.845ZM113.282 164.362V175.581H109.485V161.316H113.045L113.282 164.362ZM112.728 167.948H111.7C111.7 166.893 111.836 165.944 112.109 165.1C112.381 164.248 112.763 163.522 113.256 162.925C113.748 162.318 114.332 161.857 115.009 161.541C115.695 161.215 116.459 161.053 117.303 161.053C117.971 161.053 118.582 161.149 119.135 161.343C119.689 161.536 120.164 161.844 120.559 162.266C120.964 162.688 121.271 163.246 121.482 163.94C121.702 164.634 121.812 165.482 121.812 166.484V175.581H117.988V166.471C117.988 165.838 117.901 165.346 117.725 164.995C117.549 164.643 117.29 164.397 116.947 164.256C116.613 164.107 116.2 164.032 115.708 164.032C115.198 164.032 114.754 164.133 114.376 164.335C114.007 164.538 113.699 164.819 113.453 165.179C113.216 165.531 113.036 165.944 112.913 166.418C112.79 166.893 112.728 167.403 112.728 167.948ZM131.132 172.878C131.598 172.878 132.011 172.791 132.371 172.615C132.732 172.43 133.013 172.175 133.215 171.85C133.426 171.516 133.536 171.125 133.545 170.677H137.117C137.109 171.679 136.841 172.571 136.313 173.353C135.786 174.126 135.078 174.737 134.191 175.186C133.303 175.625 132.31 175.845 131.211 175.845C130.104 175.845 129.137 175.66 128.311 175.291C127.493 174.922 126.812 174.412 126.267 173.762C125.722 173.103 125.314 172.338 125.041 171.468C124.769 170.589 124.632 169.648 124.632 168.646V168.264C124.632 167.253 124.769 166.313 125.041 165.443C125.314 164.564 125.722 163.799 126.267 163.149C126.812 162.49 127.493 161.976 128.311 161.606C129.128 161.237 130.086 161.053 131.185 161.053C132.354 161.053 133.378 161.277 134.257 161.725C135.144 162.173 135.839 162.815 136.34 163.65C136.849 164.476 137.109 165.456 137.117 166.59H133.545C133.536 166.115 133.435 165.685 133.241 165.298C133.057 164.911 132.784 164.604 132.424 164.375C132.072 164.138 131.637 164.019 131.119 164.019C130.565 164.019 130.112 164.138 129.761 164.375C129.409 164.604 129.137 164.92 128.944 165.324C128.75 165.72 128.614 166.172 128.535 166.682C128.465 167.183 128.429 167.71 128.429 168.264V168.646C128.429 169.2 128.465 169.732 128.535 170.242C128.605 170.751 128.737 171.204 128.93 171.6C129.132 171.995 129.409 172.307 129.761 172.536C130.112 172.764 130.57 172.878 131.132 172.878ZM146.424 175.845C145.317 175.845 144.324 175.669 143.445 175.317C142.566 174.957 141.819 174.46 141.204 173.828C140.597 173.195 140.131 172.461 139.806 171.626C139.481 170.782 139.318 169.886 139.318 168.937V168.409C139.318 167.328 139.472 166.339 139.78 165.443C140.088 164.546 140.527 163.769 141.098 163.109C141.678 162.45 142.381 161.945 143.208 161.593C144.034 161.233 144.965 161.053 146.003 161.053C147.013 161.053 147.91 161.22 148.692 161.554C149.474 161.888 150.129 162.362 150.656 162.978C151.193 163.593 151.597 164.331 151.869 165.192C152.142 166.045 152.278 166.994 152.278 168.04V169.622H140.94V167.091H148.547V166.801C148.547 166.273 148.45 165.803 148.257 165.39C148.072 164.968 147.791 164.634 147.413 164.388C147.035 164.142 146.552 164.019 145.963 164.019C145.462 164.019 145.031 164.129 144.671 164.349C144.311 164.568 144.016 164.876 143.788 165.271C143.568 165.667 143.401 166.133 143.287 166.669C143.181 167.196 143.129 167.776 143.129 168.409V168.937C143.129 169.508 143.208 170.035 143.366 170.519C143.533 171.002 143.766 171.419 144.065 171.771C144.372 172.123 144.741 172.395 145.172 172.588C145.611 172.782 146.108 172.878 146.662 172.878C147.347 172.878 147.985 172.747 148.573 172.483C149.171 172.21 149.685 171.802 150.116 171.257L151.962 173.261C151.663 173.691 151.254 174.104 150.735 174.5C150.226 174.896 149.61 175.221 148.89 175.476C148.169 175.722 147.347 175.845 146.424 175.845ZM202.266 155.331V175.581H198.47V155.331H202.266ZM201.726 167.948H200.684C200.693 166.955 200.825 166.041 201.08 165.206C201.335 164.362 201.7 163.632 202.174 163.017C202.649 162.393 203.216 161.91 203.875 161.567C204.543 161.224 205.281 161.053 206.09 161.053C206.793 161.053 207.43 161.154 208.001 161.356C208.581 161.549 209.078 161.866 209.491 162.305C209.913 162.736 210.238 163.303 210.467 164.006C210.695 164.709 210.809 165.562 210.809 166.563V175.581H206.986V166.537C206.986 165.904 206.894 165.408 206.709 165.047C206.534 164.678 206.274 164.419 205.932 164.27C205.598 164.111 205.184 164.032 204.692 164.032C204.147 164.032 203.682 164.133 203.295 164.335C202.917 164.538 202.614 164.819 202.385 165.179C202.157 165.531 201.99 165.944 201.884 166.418C201.779 166.893 201.726 167.403 201.726 167.948ZM221.936 172.364V166.01C221.936 165.553 221.861 165.162 221.712 164.836C221.562 164.502 221.329 164.243 221.013 164.059C220.705 163.874 220.305 163.782 219.813 163.782C219.391 163.782 219.027 163.856 218.719 164.006C218.411 164.146 218.174 164.353 218.007 164.625C217.84 164.889 217.757 165.201 217.757 165.562H213.96C213.96 164.955 214.1 164.379 214.382 163.834C214.663 163.29 215.072 162.811 215.608 162.397C216.144 161.976 216.781 161.646 217.519 161.409C218.266 161.171 219.101 161.053 220.024 161.053C221.132 161.053 222.116 161.237 222.977 161.606C223.839 161.976 224.515 162.529 225.008 163.268C225.509 164.006 225.759 164.929 225.759 166.036V172.14C225.759 172.922 225.807 173.564 225.904 174.065C226.001 174.557 226.141 174.988 226.326 175.357V175.581H222.49C222.305 175.194 222.164 174.711 222.068 174.131C221.98 173.542 221.936 172.953 221.936 172.364ZM222.437 166.893L222.463 169.042H220.341C219.84 169.042 219.405 169.099 219.035 169.213C218.666 169.328 218.363 169.49 218.126 169.701C217.889 169.903 217.713 170.141 217.598 170.413C217.493 170.686 217.44 170.984 217.44 171.31C217.44 171.635 217.515 171.929 217.664 172.193C217.814 172.448 218.029 172.65 218.31 172.799C218.592 172.94 218.921 173.01 219.299 173.01C219.87 173.01 220.367 172.896 220.789 172.667C221.211 172.439 221.536 172.158 221.764 171.824C222.002 171.49 222.125 171.173 222.134 170.875L223.136 172.483C222.995 172.843 222.802 173.217 222.555 173.604C222.318 173.99 222.015 174.355 221.646 174.698C221.277 175.032 220.833 175.309 220.314 175.528C219.796 175.739 219.18 175.845 218.469 175.845C217.563 175.845 216.742 175.665 216.003 175.304C215.274 174.935 214.694 174.43 214.263 173.788C213.841 173.138 213.63 172.399 213.63 171.573C213.63 170.826 213.771 170.163 214.052 169.583C214.333 169.002 214.746 168.515 215.291 168.119C215.845 167.715 216.535 167.412 217.361 167.209C218.187 166.999 219.145 166.893 220.235 166.893H222.437ZM235.119 172.878C235.585 172.878 235.998 172.791 236.358 172.615C236.719 172.43 237 172.175 237.202 171.85C237.413 171.516 237.523 171.125 237.532 170.677H241.104C241.095 171.679 240.827 172.571 240.3 173.353C239.773 174.126 239.065 174.737 238.178 175.186C237.29 175.625 236.297 175.845 235.198 175.845C234.091 175.845 233.124 175.66 232.298 175.291C231.48 174.922 230.799 174.412 230.254 173.762C229.709 173.103 229.301 172.338 229.028 171.468C228.756 170.589 228.619 169.648 228.619 168.646V168.264C228.619 167.253 228.756 166.313 229.028 165.443C229.301 164.564 229.709 163.799 230.254 163.149C230.799 162.49 231.48 161.976 232.298 161.606C233.115 161.237 234.073 161.053 235.172 161.053C236.341 161.053 237.365 161.277 238.243 161.725C239.131 162.173 239.825 162.815 240.326 163.65C240.836 164.476 241.095 165.456 241.104 166.59H237.532C237.523 166.115 237.422 165.685 237.228 165.298C237.044 164.911 236.771 164.604 236.411 164.375C236.059 164.138 235.624 164.019 235.106 164.019C234.552 164.019 234.099 164.138 233.748 164.375C233.396 164.604 233.124 164.92 232.93 165.324C232.737 165.72 232.601 166.172 232.522 166.682C232.451 167.183 232.416 167.71 232.416 168.264V168.646C232.416 169.2 232.451 169.732 232.522 170.242C232.592 170.751 232.724 171.204 232.917 171.6C233.119 171.995 233.396 172.307 233.748 172.536C234.099 172.764 234.556 172.878 235.119 172.878ZM247.643 155.318V175.581H243.846V155.318H247.643ZM256.634 161.316L250.438 168.383L247.115 171.745L245.731 169.002L248.368 165.654L252.072 161.316H256.634ZM252.692 175.581L248.473 168.989L251.097 166.695L257.069 175.581H252.692ZM265.111 175.845C264.003 175.845 263.01 175.669 262.131 175.317C261.252 174.957 260.505 174.46 259.89 173.828C259.283 173.195 258.818 172.461 258.492 171.626C258.167 170.782 258.005 169.886 258.005 168.937V168.409C258.005 167.328 258.158 166.339 258.466 165.443C258.774 164.546 259.213 163.769 259.784 163.109C260.364 162.45 261.068 161.945 261.894 161.593C262.72 161.233 263.652 161.053 264.689 161.053C265.699 161.053 266.596 161.22 267.378 161.554C268.16 161.888 268.815 162.362 269.342 162.978C269.879 163.593 270.283 164.331 270.555 165.192C270.828 166.045 270.964 166.994 270.964 168.04V169.622H259.626V167.091H267.233V166.801C267.233 166.273 267.136 165.803 266.943 165.39C266.758 164.968 266.477 164.634 266.099 164.388C265.721 164.142 265.238 164.019 264.649 164.019C264.148 164.019 263.717 164.129 263.357 164.349C262.997 164.568 262.702 164.876 262.474 165.271C262.254 165.667 262.087 166.133 261.973 166.669C261.867 167.196 261.815 167.776 261.815 168.409V168.937C261.815 169.508 261.894 170.035 262.052 170.519C262.219 171.002 262.452 171.419 262.751 171.771C263.058 172.123 263.427 172.395 263.858 172.588C264.298 172.782 264.794 172.878 265.348 172.878C266.033 172.878 266.671 172.747 267.259 172.483C267.857 172.21 268.371 171.802 268.802 171.257L270.648 173.261C270.349 173.691 269.94 174.104 269.422 174.5C268.912 174.896 268.297 175.221 267.576 175.476C266.855 175.722 266.033 175.845 265.111 175.845ZM277.463 164.428V175.581H273.666V161.316H277.239L277.463 164.428ZM281.761 161.224L281.695 164.744C281.51 164.718 281.286 164.696 281.023 164.678C280.768 164.652 280.535 164.639 280.324 164.639C279.788 164.639 279.322 164.709 278.926 164.85C278.54 164.981 278.215 165.179 277.951 165.443C277.696 165.707 277.503 166.027 277.371 166.405C277.248 166.783 277.177 167.214 277.16 167.697L276.395 167.46C276.395 166.537 276.487 165.689 276.672 164.916C276.857 164.133 277.125 163.452 277.476 162.872C277.837 162.292 278.276 161.844 278.795 161.527C279.313 161.211 279.906 161.053 280.574 161.053C280.785 161.053 281.001 161.07 281.22 161.105C281.44 161.132 281.62 161.171 281.761 161.224ZM297.923 175.845C296.816 175.845 295.822 175.669 294.943 175.317C294.065 174.957 293.317 174.46 292.702 173.828C292.096 173.195 291.63 172.461 291.305 171.626C290.98 170.782 290.817 169.886 290.817 168.937V168.409C290.817 167.328 290.971 166.339 291.278 165.443C291.586 164.546 292.025 163.769 292.597 163.109C293.177 162.45 293.88 161.945 294.706 161.593C295.532 161.233 296.464 161.053 297.501 161.053C298.512 161.053 299.408 161.22 300.191 161.554C300.973 161.888 301.628 162.362 302.155 162.978C302.691 163.593 303.095 164.331 303.368 165.192C303.64 166.045 303.776 166.994 303.776 168.04V169.622H292.439V167.091H300.046V166.801C300.046 166.273 299.949 165.803 299.755 165.39C299.571 164.968 299.29 164.634 298.912 164.388C298.534 164.142 298.05 164.019 297.462 164.019C296.961 164.019 296.53 164.129 296.17 164.349C295.809 164.568 295.515 164.876 295.286 165.271C295.066 165.667 294.9 166.133 294.785 166.669C294.68 167.196 294.627 167.776 294.627 168.409V168.937C294.627 169.508 294.706 170.035 294.864 170.519C295.031 171.002 295.264 171.419 295.563 171.771C295.871 172.123 296.24 172.395 296.671 172.588C297.11 172.782 297.607 172.878 298.16 172.878C298.846 172.878 299.483 172.747 300.072 172.483C300.67 172.21 301.184 171.802 301.614 171.257L303.46 173.261C303.161 173.691 302.753 174.104 302.234 174.5C301.724 174.896 301.109 175.221 300.388 175.476C299.668 175.722 298.846 175.845 297.923 175.845ZM311.317 175.581H307.494V160.051C307.494 158.97 307.705 158.06 308.126 157.322C308.557 156.575 309.159 156.012 309.933 155.634C310.715 155.248 311.642 155.054 312.714 155.054C313.066 155.054 313.404 155.081 313.73 155.133C314.055 155.177 314.371 155.234 314.679 155.305L314.639 158.166C314.472 158.122 314.296 158.091 314.112 158.073C313.927 158.056 313.712 158.047 313.466 158.047C313.009 158.047 312.618 158.126 312.293 158.284C311.976 158.434 311.734 158.658 311.567 158.957C311.4 159.255 311.317 159.62 311.317 160.051V175.581ZM314.165 161.316V164.006H305.371V161.316H314.165ZM321.534 175.581H317.71V160.051C317.71 158.97 317.921 158.06 318.343 157.322C318.774 156.575 319.376 156.012 320.149 155.634C320.932 155.248 321.859 155.054 322.931 155.054C323.283 155.054 323.621 155.081 323.946 155.133C324.271 155.177 324.588 155.234 324.896 155.305L324.856 158.166C324.689 158.122 324.513 158.091 324.329 158.073C324.144 158.056 323.929 158.047 323.683 158.047C323.226 158.047 322.834 158.126 322.509 158.284C322.193 158.434 321.951 158.658 321.784 158.957C321.617 159.255 321.534 159.62 321.534 160.051V175.581ZM324.381 161.316V164.006H315.588V161.316H324.381ZM333.161 175.845C332.054 175.845 331.061 175.669 330.182 175.317C329.303 174.957 328.556 174.46 327.94 173.828C327.334 173.195 326.868 172.461 326.543 171.626C326.218 170.782 326.055 169.886 326.055 168.937V168.409C326.055 167.328 326.209 166.339 326.517 165.443C326.824 164.546 327.264 163.769 327.835 163.109C328.415 162.45 329.118 161.945 329.944 161.593C330.77 161.233 331.702 161.053 332.739 161.053C333.75 161.053 334.646 161.22 335.429 161.554C336.211 161.888 336.866 162.362 337.393 162.978C337.929 163.593 338.333 164.331 338.606 165.192C338.878 166.045 339.015 166.994 339.015 168.04V169.622H327.677V167.091H335.284V166.801C335.284 166.273 335.187 165.803 334.994 165.39C334.809 164.968 334.528 164.634 334.15 164.388C333.772 164.142 333.289 164.019 332.7 164.019C332.199 164.019 331.768 164.129 331.408 164.349C331.047 164.568 330.753 164.876 330.524 165.271C330.305 165.667 330.138 166.133 330.023 166.669C329.918 167.196 329.865 167.776 329.865 168.409V168.937C329.865 169.508 329.944 170.035 330.103 170.519C330.27 171.002 330.502 171.419 330.801 171.771C331.109 172.123 331.478 172.395 331.909 172.588C332.348 172.782 332.845 172.878 333.398 172.878C334.084 172.878 334.721 172.747 335.31 172.483C335.908 172.21 336.422 171.802 336.853 171.257L338.698 173.261C338.399 173.691 337.991 174.104 337.472 174.5C336.962 174.896 336.347 175.221 335.626 175.476C334.906 175.722 334.084 175.845 333.161 175.845ZM347.61 172.878C348.076 172.878 348.489 172.791 348.849 172.615C349.209 172.43 349.491 172.175 349.693 171.85C349.904 171.516 350.014 171.125 350.022 170.677H353.595C353.586 171.679 353.318 172.571 352.791 173.353C352.264 174.126 351.556 174.737 350.668 175.186C349.781 175.625 348.788 175.845 347.689 175.845C346.581 175.845 345.615 175.66 344.788 175.291C343.971 174.922 343.29 174.412 342.745 173.762C342.2 173.103 341.791 172.338 341.519 171.468C341.246 170.589 341.11 169.648 341.11 168.646V168.264C341.11 167.253 341.246 166.313 341.519 165.443C341.791 164.564 342.2 163.799 342.745 163.149C343.29 162.49 343.971 161.976 344.788 161.606C345.606 161.237 346.564 161.053 347.663 161.053C348.831 161.053 349.855 161.277 350.734 161.725C351.622 162.173 352.316 162.815 352.817 163.65C353.327 164.476 353.586 165.456 353.595 166.59H350.022C350.014 166.115 349.913 165.685 349.719 165.298C349.535 164.911 349.262 164.604 348.902 164.375C348.55 164.138 348.115 164.019 347.597 164.019C347.043 164.019 346.59 164.138 346.239 164.375C345.887 164.604 345.615 164.92 345.421 165.324C345.228 165.72 345.092 166.172 345.013 166.682C344.942 167.183 344.907 167.71 344.907 168.264V168.646C344.907 169.2 344.942 169.732 345.013 170.242C345.083 170.751 345.215 171.204 345.408 171.6C345.61 171.995 345.887 172.307 346.239 172.536C346.59 172.764 347.047 172.878 347.61 172.878ZM363.324 161.316V164.006H355.018V161.316H363.324ZM357.075 157.796H360.872V171.283C360.872 171.696 360.925 172.013 361.03 172.232C361.144 172.452 361.311 172.606 361.531 172.694C361.751 172.773 362.028 172.812 362.362 172.812C362.599 172.812 362.81 172.804 362.995 172.786C363.188 172.76 363.35 172.733 363.482 172.707L363.495 175.502C363.17 175.607 362.819 175.691 362.441 175.752C362.063 175.814 361.645 175.845 361.188 175.845C360.353 175.845 359.624 175.708 359 175.436C358.385 175.155 357.91 174.707 357.576 174.091C357.242 173.476 357.075 172.667 357.075 171.666V157.796Z" fill="white"/>
<path d="M330.766 102.549C331.49 101.981 332.51 101.981 333.234 102.549L334.743 103.732C335.212 104.1 335.823 104.239 336.406 104.111L338.278 103.7C339.178 103.503 340.096 103.945 340.502 104.771L341.348 106.491C341.611 107.027 342.1 107.417 342.682 107.555L344.547 107.997C345.443 108.209 346.078 109.006 346.086 109.927L346.101 111.843C346.106 112.441 346.378 113.004 346.842 113.38L348.331 114.588C349.046 115.168 349.273 116.161 348.88 116.994L348.062 118.728C347.808 119.268 347.808 119.894 348.062 120.434L348.88 122.168C349.273 123.001 349.046 123.994 348.331 124.574L346.842 125.782C346.378 126.158 346.106 126.722 346.101 127.319L346.086 129.236C346.078 130.156 345.443 130.953 344.547 131.165L342.682 131.607C342.1 131.745 341.611 132.135 341.348 132.671L340.502 134.391C340.096 135.217 339.178 135.66 338.278 135.462L336.406 135.051C335.823 134.923 335.212 135.062 334.743 135.43L333.234 136.613C332.51 137.182 331.49 137.182 330.766 136.613L329.257 135.43C328.788 135.062 328.177 134.923 327.594 135.051L325.722 135.462C324.822 135.66 323.904 135.217 323.498 134.391L322.652 132.671C322.389 132.135 321.9 131.745 321.318 131.607L319.453 131.165C318.557 130.953 317.922 130.156 317.914 129.236L317.899 127.319C317.894 126.722 317.622 126.158 317.158 125.782L315.669 124.574C314.954 123.994 314.727 123.001 315.12 122.168L315.938 120.434C316.192 119.894 316.192 119.268 315.938 118.728L315.12 116.994C314.727 116.161 314.954 115.168 315.669 114.588L317.158 113.38C317.622 113.004 317.894 112.441 317.899 111.843L317.914 109.927C317.922 109.006 318.557 108.209 319.453 107.997L321.318 107.555C321.9 107.417 322.389 107.027 322.652 106.491L323.498 104.771C323.904 103.945 324.822 103.503 325.722 103.7L327.594 104.111C328.177 104.239 328.788 104.1 329.257 103.732L330.766 102.549Z" fill="#ED702D"/>
<path d="M332 119.581V129.581M322 119.581H332H322ZM342 119.581H332H342ZM332 119.581V109.581V119.581Z" stroke="white" stroke-width="2.375" stroke-linecap="round" stroke-linejoin="round"/>
<path d="M24.707 74.5581C24.707 74.2153 24.6543 73.9077 24.5488 73.6353C24.4521 73.354 24.2676 73.0991 23.9951 72.8706C23.7227 72.6333 23.3403 72.4004 22.8481 72.1719C22.356 71.9434 21.7188 71.7061 20.9365 71.46C20.0664 71.1787 19.2402 70.8623 18.458 70.5107C17.6846 70.1592 16.999 69.7505 16.4014 69.2847C15.8125 68.8101 15.3467 68.2607 15.0039 67.6367C14.6699 67.0127 14.5029 66.2876 14.5029 65.4614C14.5029 64.6616 14.6787 63.9365 15.0303 63.2861C15.3818 62.627 15.874 62.0645 16.5068 61.5986C17.1396 61.124 17.8867 60.7593 18.748 60.5044C19.6182 60.2495 20.5718 60.1221 21.6089 60.1221C23.0239 60.1221 24.2588 60.377 25.3135 60.8867C26.3682 61.3965 27.1855 62.0952 27.7656 62.9829C28.3545 63.8706 28.6489 64.8857 28.6489 66.0283H24.7202C24.7202 65.4658 24.6016 64.9736 24.3643 64.5518C24.1357 64.1211 23.7842 63.7827 23.3096 63.5366C22.8438 63.2905 22.2549 63.1675 21.543 63.1675C20.8574 63.1675 20.2861 63.2729 19.8291 63.4839C19.3721 63.686 19.0293 63.9629 18.8008 64.3145C18.5723 64.6572 18.458 65.0439 18.458 65.4746C18.458 65.7998 18.5371 66.0942 18.6953 66.3579C18.8623 66.6216 19.1084 66.8677 19.4336 67.0962C19.7588 67.3247 20.1587 67.54 20.6333 67.7422C21.1079 67.9443 21.6572 68.1421 22.2812 68.3354C23.3271 68.6519 24.2456 69.0078 25.0366 69.4033C25.8364 69.7988 26.5044 70.2427 27.0405 70.7349C27.5767 71.2271 27.981 71.7852 28.2534 72.4092C28.5259 73.0332 28.6621 73.7407 28.6621 74.5317C28.6621 75.3667 28.4995 76.1138 28.1743 76.7729C27.8491 77.4321 27.3789 77.9902 26.7637 78.4473C26.1484 78.9043 25.4146 79.2515 24.562 79.4888C23.7095 79.7261 22.7559 79.8447 21.7012 79.8447C20.752 79.8447 19.8159 79.7217 18.8931 79.4756C17.9702 79.2207 17.1309 78.8384 16.375 78.3286C15.6279 77.8188 15.0303 77.1685 14.582 76.3774C14.1338 75.5864 13.9097 74.6504 13.9097 73.5693H17.8779C17.8779 74.167 17.9702 74.6724 18.1548 75.0854C18.3394 75.4985 18.5986 75.8325 18.9326 76.0874C19.2754 76.3423 19.6797 76.5269 20.1455 76.6411C20.6201 76.7554 21.1387 76.8125 21.7012 76.8125C22.3867 76.8125 22.9492 76.7158 23.3887 76.5225C23.8369 76.3291 24.1665 76.061 24.3774 75.7183C24.5972 75.3755 24.707 74.9888 24.707 74.5581ZM35.0888 59.3311V79.5811H31.292V59.3311H35.0888ZM34.5483 71.9478H33.5068C33.5156 70.9546 33.6474 70.0405 33.9023 69.2056C34.1572 68.3618 34.522 67.6323 34.9966 67.0171C35.4712 66.3931 36.0381 65.9097 36.6972 65.5669C37.3652 65.2241 38.1035 65.0527 38.9121 65.0527C39.6152 65.0527 40.2524 65.1538 40.8237 65.356C41.4038 65.5493 41.9004 65.8657 42.3135 66.3052C42.7353 66.7358 43.0605 67.3027 43.289 68.0059C43.5176 68.709 43.6318 69.5615 43.6318 70.5635V79.5811H39.8086V70.5371C39.8086 69.9043 39.7163 69.4077 39.5317 69.0474C39.3559 68.6782 39.0967 68.4189 38.7539 68.2695C38.4199 68.1113 38.0068 68.0322 37.5146 68.0322C36.9697 68.0322 36.5039 68.1333 36.1172 68.3354C35.7392 68.5376 35.436 68.8188 35.2075 69.1792C34.979 69.5308 34.812 69.9438 34.7065 70.4185C34.6011 70.8931 34.5483 71.4028 34.5483 71.9478ZM46.1826 72.5938V72.3169C46.1826 71.271 46.332 70.3086 46.6308 69.4297C46.9296 68.542 47.3647 67.7729 47.936 67.1226C48.5073 66.4722 49.2104 65.9668 50.0454 65.6064C50.8803 65.2373 51.8383 65.0527 52.9194 65.0527C54.0005 65.0527 54.9629 65.2373 55.8066 65.6064C56.6504 65.9668 57.3579 66.4722 57.9292 67.1226C58.5092 67.7729 58.9487 68.542 59.2475 69.4297C59.5463 70.3086 59.6958 71.271 59.6958 72.3169V72.5938C59.6958 73.6309 59.5463 74.5933 59.2475 75.481C58.9487 76.3599 58.5092 77.1289 57.9292 77.7881C57.3579 78.4385 56.6547 78.9438 55.8198 79.3042C54.9848 79.6646 54.0268 79.8447 52.9458 79.8447C51.8647 79.8447 50.9023 79.6646 50.0586 79.3042C49.2236 78.9438 48.5161 78.4385 47.936 77.7881C47.3647 77.1289 46.9296 76.3599 46.6308 75.481C46.332 74.5933 46.1826 73.6309 46.1826 72.5938ZM49.9795 72.3169V72.5938C49.9795 73.1914 50.0322 73.7495 50.1377 74.2681C50.2431 74.7866 50.4101 75.2437 50.6386 75.6392C50.8759 76.0259 51.1836 76.3291 51.5615 76.5488C51.9394 76.7686 52.4008 76.8784 52.9458 76.8784C53.4731 76.8784 53.9257 76.7686 54.3037 76.5488C54.6816 76.3291 54.9848 76.0259 55.2133 75.6392C55.4419 75.2437 55.6088 74.7866 55.7143 74.2681C55.8286 73.7495 55.8857 73.1914 55.8857 72.5938V72.3169C55.8857 71.7368 55.8286 71.1919 55.7143 70.6821C55.6088 70.1636 55.4375 69.7065 55.2002 69.311C54.9716 68.9067 54.6684 68.5903 54.2905 68.3618C53.9126 68.1333 53.4555 68.019 52.9194 68.019C52.3833 68.019 51.9262 68.1333 51.5483 68.3618C51.1792 68.5903 50.8759 68.9067 50.6386 69.311C50.4101 69.7065 50.2431 70.1636 50.1377 70.6821C50.0322 71.1919 49.9795 71.7368 49.9795 72.3169ZM66.373 75.8896L69.3393 65.3164H71.7519L70.9741 69.4692L68.0078 79.5811H65.9907L66.373 75.8896ZM64.8701 65.3164L66.9926 75.8765L67.1904 79.5811H64.8173L61.205 65.3164H64.8701ZM74.4677 75.7051L76.5375 65.3164H80.2158L76.6035 79.5811H74.2436L74.4677 75.7051ZM72.0815 65.3164L75.0346 75.8105L75.4433 79.5811H73.413L70.4467 69.4824L69.6953 65.3164H72.0815ZM93.6229 77.9727L97.4066 65.3164H101.48L95.7455 81.73C95.6225 82.0903 95.4555 82.4771 95.2445 82.8901C95.0424 83.3032 94.7655 83.6943 94.414 84.0635C94.0712 84.4414 93.6361 84.749 93.1088 84.9863C92.5902 85.2236 91.953 85.3423 91.1972 85.3423C90.8368 85.3423 90.5424 85.3203 90.3139 85.2764C90.0854 85.2324 89.8129 85.1709 89.4965 85.0918V82.3101C89.5932 82.3101 89.6942 82.3101 89.7997 82.3101C89.9052 82.3188 90.0062 82.3232 90.1029 82.3232C90.6039 82.3232 91.0126 82.2661 91.329 82.1519C91.6454 82.0376 91.9003 81.8618 92.0937 81.6245C92.287 81.396 92.4408 81.0972 92.5551 80.728L93.6229 77.9727ZM92.0409 65.3164L95.1391 75.6523L95.6796 79.6733L93.0956 79.9502L87.9672 65.3164H92.0409ZM102.449 72.5938V72.3169C102.449 71.271 102.599 70.3086 102.897 69.4297C103.196 68.542 103.631 67.7729 104.203 67.1226C104.774 66.4722 105.477 65.9668 106.312 65.6064C107.147 65.2373 108.105 65.0527 109.186 65.0527C110.267 65.0527 111.229 65.2373 112.073 65.6064C112.917 65.9668 113.624 66.4722 114.196 67.1226C114.776 67.7729 115.215 68.542 115.514 69.4297C115.813 70.3086 115.962 71.271 115.962 72.3169V72.5938C115.962 73.6309 115.813 74.5933 115.514 75.481C115.215 76.3599 114.776 77.1289 114.196 77.7881C113.624 78.4385 112.921 78.9438 112.086 79.3042C111.251 79.6646 110.293 79.8447 109.212 79.8447C108.131 79.8447 107.169 79.6646 106.325 79.3042C105.49 78.9438 104.783 78.4385 104.203 77.7881C103.631 77.1289 103.196 76.3599 102.897 75.481C102.599 74.5933 102.449 73.6309 102.449 72.5938ZM106.246 72.3169V72.5938C106.246 73.1914 106.299 73.7495 106.404 74.2681C106.51 74.7866 106.677 75.2437 106.905 75.6392C107.142 76.0259 107.45 76.3291 107.828 76.5488C108.206 76.7686 108.667 76.8784 109.212 76.8784C109.74 76.8784 110.192 76.7686 110.57 76.5488C110.948 76.3291 111.251 76.0259 111.48 75.6392C111.708 75.2437 111.875 74.7866 111.981 74.2681C112.095 73.7495 112.152 73.1914 112.152 72.5938V72.3169C112.152 71.7368 112.095 71.1919 111.981 70.6821C111.875 70.1636 111.704 69.7065 111.467 69.311C111.238 68.9067 110.935 68.5903 110.557 68.3618C110.179 68.1333 109.722 68.019 109.186 68.019C108.65 68.019 108.193 68.1333 107.815 68.3618C107.446 68.5903 107.142 68.9067 106.905 69.311C106.677 69.7065 106.51 70.1636 106.404 70.6821C106.299 71.1919 106.246 71.7368 106.246 72.3169ZM127.003 76.1665V65.3164H130.8V79.5811H127.227L127.003 76.1665ZM127.425 73.2397L128.546 73.2134C128.546 74.1626 128.436 75.0459 128.216 75.8633C127.996 76.6719 127.667 77.375 127.227 77.9727C126.788 78.5615 126.234 79.0229 125.566 79.3569C124.898 79.6821 124.112 79.8447 123.206 79.8447C122.512 79.8447 121.87 79.748 121.282 79.5547C120.702 79.3525 120.201 79.0405 119.779 78.6187C119.366 78.188 119.04 77.6387 118.803 76.9707C118.575 76.2939 118.46 75.481 118.46 74.5317V65.3164H122.257V74.5581C122.257 74.98 122.306 75.3359 122.402 75.626C122.508 75.916 122.653 76.1533 122.837 76.3379C123.022 76.5225 123.237 76.6543 123.483 76.7334C123.738 76.8125 124.019 76.8521 124.327 76.8521C125.109 76.8521 125.724 76.6938 126.173 76.3774C126.63 76.061 126.951 75.6304 127.135 75.0854C127.328 74.5317 127.425 73.9165 127.425 73.2397ZM137.767 68.4277V79.5811H133.971V65.3164H137.543L137.767 68.4277ZM142.065 65.2241L141.999 68.7441C141.815 68.7178 141.591 68.6958 141.327 68.6782C141.072 68.6519 140.839 68.6387 140.628 68.6387C140.092 68.6387 139.626 68.709 139.231 68.8496C138.844 68.9814 138.519 69.1792 138.255 69.4429C138 69.7065 137.807 70.0273 137.675 70.4053C137.552 70.7832 137.482 71.2139 137.464 71.6973L136.7 71.46C136.7 70.5371 136.792 69.689 136.976 68.9155C137.161 68.1333 137.429 67.4521 137.781 66.8721C138.141 66.292 138.58 65.8438 139.099 65.5273C139.618 65.2109 140.211 65.0527 140.879 65.0527C141.09 65.0527 141.305 65.0703 141.525 65.1055C141.744 65.1318 141.925 65.1714 142.065 65.2241ZM159.672 60.3857V79.5811H155.73V60.3857H159.672ZM165.578 60.3857V63.4839H149.916V60.3857H165.578ZM175.833 63.6685L170.613 79.5811H166.407L173.539 60.3857H176.216L175.833 63.6685ZM180.171 79.5811L174.937 63.6685L174.515 60.3857H177.217L184.389 79.5811H180.171ZM179.933 72.4355V75.5337H169.795V72.4355H179.933ZM200.129 76.4961V79.5811H190.465V76.4961H200.129ZM191.744 60.3857V79.5811H187.789V60.3857H191.744ZM216.897 76.4961V79.5811H206.68V76.4961H216.897ZM207.972 60.3857V79.5811H204.017V60.3857H207.972ZM215.565 68.2036V71.2095H206.68V68.2036H215.565ZM216.884 60.3857V63.4839H206.68V60.3857H216.884ZM236.447 60.3857V79.5811H232.492L224.779 66.7139V79.5811H220.824V60.3857H224.779L232.505 73.2661V60.3857H236.447ZM249.695 60.3857V79.5811H245.753V60.3857H249.695ZM255.601 60.3857V63.4839H239.939V60.3857H255.601ZM269.257 74.5581C269.257 74.2153 269.205 73.9077 269.099 73.6353C269.003 73.354 268.818 73.0991 268.546 72.8706C268.273 72.6333 267.891 72.4004 267.399 72.1719C266.906 71.9434 266.269 71.7061 265.487 71.46C264.617 71.1787 263.791 70.8623 263.008 70.5107C262.235 70.1592 261.549 69.7505 260.952 69.2847C260.363 68.8101 259.897 68.2607 259.554 67.6367C259.22 67.0127 259.053 66.2876 259.053 65.4614C259.053 64.6616 259.229 63.9365 259.581 63.2861C259.932 62.627 260.424 62.0645 261.057 61.5986C261.69 61.124 262.437 60.7593 263.298 60.5044C264.169 60.2495 265.122 60.1221 266.159 60.1221C267.574 60.1221 268.809 60.377 269.864 60.8867C270.919 61.3965 271.736 62.0952 272.316 62.9829C272.905 63.8706 273.199 64.8857 273.199 66.0283H269.271C269.271 65.4658 269.152 64.9736 268.915 64.5518C268.686 64.1211 268.335 63.7827 267.86 63.5366C267.394 63.2905 266.805 63.1675 266.093 63.1675C265.408 63.1675 264.837 63.2729 264.379 63.4839C263.922 63.686 263.58 63.9629 263.351 64.3145C263.123 64.6572 263.008 65.0439 263.008 65.4746C263.008 65.7998 263.087 66.0942 263.246 66.3579C263.413 66.6216 263.659 66.8677 263.984 67.0962C264.309 67.3247 264.709 67.54 265.184 67.7422C265.658 67.9443 266.208 68.1421 266.832 68.3354C267.878 68.6519 268.796 69.0078 269.587 69.4033C270.387 69.7988 271.055 70.2427 271.591 70.7349C272.127 71.2271 272.531 71.7852 272.804 72.4092C273.076 73.0332 273.212 73.7407 273.212 74.5317C273.212 75.3667 273.05 76.1138 272.725 76.7729C272.4 77.4321 271.929 77.9902 271.314 78.4473C270.699 78.9043 269.965 79.2515 269.112 79.4888C268.26 79.7261 267.306 79.8447 266.252 79.8447C265.302 79.8447 264.366 79.7217 263.443 79.4756C262.521 79.2207 261.681 78.8384 260.925 78.3286C260.178 77.8188 259.581 77.1685 259.132 76.3774C258.684 75.5864 258.46 74.6504 258.46 73.5693H262.428C262.428 74.167 262.521 74.6724 262.705 75.0854C262.89 75.4985 263.149 75.8325 263.483 76.0874C263.826 76.3423 264.23 76.5269 264.696 76.6411C265.171 76.7554 265.689 76.8125 266.252 76.8125C266.937 76.8125 267.5 76.7158 267.939 76.5225C268.387 76.3291 268.717 76.061 268.928 75.7183C269.148 75.3755 269.257 74.9888 269.257 74.5581Z" fill="white"/>
<circle cx="19.5" cy="118.081" r="5.5" fill="#9E037C"/>
<circle cx="44.5" cy="105.081" r="5.5" fill="#9E037C"/>
<circle cx="44.5" cy="132.081" r="5.5" fill="#9E037C"/>
<line x1="20.5079" y1="117.71" x2="43.5079" y2="104.71" stroke="#9E037C" stroke-width="2"/>
<line x1="19.4886" y1="117.709" x2="44.4886" y2="131.709" stroke="#9E037C" stroke-width="2"/>
<path d="M311.718 70.0908L320.103 73.123V76.6958L308.712 71.8706V69.3394L311.718 70.0908ZM320.103 67.6123L311.705 70.6973L308.712 71.4092V68.8779L320.103 64.0527V67.6123ZM331.44 59.3857L324.4 80.229H321.579L328.619 59.3857H331.44ZM341.803 70.6182L333.352 67.5991V64.0527L344.835 68.8779V71.4224L341.803 70.6182ZM333.352 73.1494L341.816 70.0645L344.835 69.3394V71.8706L333.352 76.6958V73.1494Z" fill="#0376E1"/>
<path d="M282 69.5811H302" stroke="white"/>
<path d="M378.354 69.9346C378.549 69.7393 378.549 69.4228 378.354 69.2275L375.172 66.0455C374.976 65.8503 374.66 65.8503 374.464 66.0455C374.269 66.2408 374.269 66.5574 374.464 66.7526L377.293 69.5811L374.464 72.4095C374.269 72.6047 374.269 72.9213 374.464 73.1166C374.66 73.3119 374.976 73.3119 375.172 73.1166L378.354 69.9346ZM350 70.0811H378V69.0811H350V70.0811Z" fill="white"/>
<path d="M190 168.581L163 184.169V152.993L190 168.581Z" fill="#1BA48B"/>
</svg>
