<svg width="29" height="12" viewBox="0 0 29 12" fill="none" xmlns="http://www.w3.org/2000/svg">
<path d="M4.21465 0.150635C1.92217 0.150635 0.288867 1.71802 0.288867 3.86401V3.87866C0.288867 5.8855 1.70977 7.36499 3.73857 7.36499C5.18877 7.36499 6.11162 6.62524 6.4998 5.79028H6.64629C6.64629 5.87085 6.63896 5.95142 6.63896 6.03198C6.5584 8.05347 5.84795 9.69409 4.1707 9.69409C3.24053 9.69409 2.58867 9.21069 2.31035 8.47095L2.28838 8.39771H0.428027L0.442676 8.47827C0.77959 10.0969 2.22978 11.2468 4.1707 11.2468C6.82939 11.2468 8.4334 9.13745 8.4334 5.57788V5.56323C8.4334 1.75464 6.47051 0.150635 4.21465 0.150635ZM4.20732 5.91479C3.00615 5.91479 2.13457 5.03589 2.13457 3.81274V3.7981C2.13457 2.6189 3.06475 1.68872 4.2293 1.68872C5.40117 1.68872 6.3167 2.63354 6.3167 3.84204V3.85669C6.3167 5.05054 5.40117 5.91479 4.20732 5.91479ZM11.4586 4.13501C12.1324 4.13501 12.6231 3.62231 12.6231 2.97778C12.6231 2.32593 12.1324 1.82056 11.4586 1.82056C10.7921 1.82056 10.294 2.32593 10.294 2.97778C10.294 3.62231 10.7921 4.13501 11.4586 4.13501ZM11.4586 9.56958C12.1324 9.56958 12.6231 9.06421 12.6231 8.41235C12.6231 7.7605 12.1324 7.25513 11.4586 7.25513C10.7921 7.25513 10.294 7.7605 10.294 8.41235C10.294 9.06421 10.7921 9.56958 11.4586 9.56958ZM19.6107 10.9832H21.4198V8.95435H22.8407V7.39429H21.4198V0.414307H18.7465C17.3109 2.59692 15.8095 5.02856 14.4398 7.40894V8.95435H19.6107V10.9832ZM16.1977 7.43823V7.32837C17.223 5.53394 18.4462 3.57837 19.5302 1.9231H19.64V7.43823H16.1977ZM26.9206 10.9832H28.8103V0.414307H26.9279L24.1667 2.35522V4.13501L26.7961 2.27466H26.9206V10.9832Z" fill="black"/>
</svg>
